<svg width="32" height="31" viewBox="0 0 32 31" fill="none" xmlns="http://www.w3.org/2000/svg">
<path d="M0.493784 22.9079C-0.723398 18.7814 0.436901 14.4736 2.58417 10.736C3.33697 9.42619 4.07522 8.44323 4.99869 7.24986C5.87664 6.10564 6.82815 5.01979 7.84717 3.99919C8.47163 3.37869 9.08287 2.74364 9.76025 2.18003C10.3318 1.70506 11.4564 0.655898 12.274 1.10573C12.8191 1.40474 12.9355 2.05302 12.8733 2.59678C12.8072 3.18288 12.4486 3.91981 13.0572 4.28628C13.5243 4.57073 14.2704 4.25586 14.6554 3.87615C15.5816 2.96855 20.617 -1.64087 21.6767 0.614888C21.8236 0.929768 21.7125 1.30419 21.559 1.61642C21.2084 2.3335 20.74 3.33635 21.5894 3.93039C22.239 4.38948 22.972 3.98596 23.6123 3.74252C24.7369 3.31386 25.9157 2.89711 27.121 2.79259C27.7375 2.73702 28.6425 2.72776 28.911 3.42764C29.2669 4.35376 28.4903 5.0629 27.9188 5.67678C27.5999 6.02077 27.0509 6.44017 26.9927 7.04876C26.8987 8.02251 28.3937 8.23022 29.1346 8.36385C29.5704 8.42333 30.0018 8.51173 30.4259 8.62845C31.0609 8.80177 31.9355 9.20264 31.95 9.96739C31.9646 10.7956 31.0133 11.2203 30.4947 11.5934C30.4947 11.5934 27.8606 12.9376 27.7918 14.4524C27.7428 15.5346 28.6768 16.1869 29.5831 16.7095C30.1388 17.031 30.7858 17.1646 31.3348 17.5033C31.6854 17.7203 32.04 18.1251 31.9963 18.5617C31.9514 19.0314 31.4248 19.3992 31.0398 19.591C30.6018 19.8107 30.1031 19.8636 29.6374 20.0012C29.084 20.1617 28.5475 20.3752 28.0352 20.6389C27.543 20.8955 26.9966 21.2395 26.7558 21.7635C26.4701 22.3866 26.5626 22.7928 26.8378 23.4053C27.113 24.0179 27.8103 24.5656 28.0193 25.2232C28.4162 26.4734 27.1236 27.0317 26.1314 27.25C24.4719 27.6243 22.8327 28.0836 21.2203 28.626C19.38 29.2359 17.5608 30.1276 15.5908 30.3988C14.1096 30.6095 12.6105 30.6658 11.1177 30.5669C8.25995 30.3644 5.34928 29.482 3.22847 27.4789C1.92959 26.2232 0.986106 24.6461 0.493784 22.9079Z" fill="url(#paint0_radial_6914_9408)"/>
<path d="M1.81742 19.6235C1.98015 18.4196 2.7131 17.172 4.02289 17.0423C6.00743 16.8478 7.27093 18.2092 8.59792 18.7014C9.88919 19.1803 10.6327 19.2306 12.0007 19.0361C14.2366 18.7146 18.0496 17.549 18.506 20.7045C18.8196 22.8702 18.3605 24.6987 16.5943 26.281C14.5476 28.1266 11.3723 28.5632 7.88218 27.7469C6.33688 27.3857 4.79159 26.4702 3.6485 25.3655C2.09394 23.8691 1.52106 21.8198 1.81742 19.6235Z" fill="white"/>
<path d="M5.1133 22.6852C5.65912 22.6852 6.10159 22.091 6.10159 21.3582C6.10159 20.6253 5.65912 20.0312 5.1133 20.0312C4.56747 20.0312 4.125 20.6253 4.125 21.3582C4.125 22.091 4.56747 22.6852 5.1133 22.6852Z" fill="#221F20"/>
<path d="M12.0721 23.9564C12.7246 23.9564 13.2535 23.2456 13.2535 22.3688C13.2535 21.492 12.7246 20.7812 12.0721 20.7812C11.4196 20.7812 10.8906 21.492 10.8906 22.3688C10.8906 23.2456 11.4196 23.9564 12.0721 23.9564Z" fill="#221F20"/>
<path d="M6.68661 24.2435C7.06364 24.2435 7.36928 23.9301 7.36928 23.5435C7.36928 23.157 7.06364 22.8438 6.68661 22.8438C6.30957 22.8438 6.00391 23.157 6.00391 23.5435C6.00391 23.9301 6.30957 24.2435 6.68661 24.2435Z" fill="#221F20"/>
<path d="M7.875 25.3282C7.59988 25.329 7.32703 25.2783 7.07059 25.1787C7.00901 25.1537 6.95986 25.1054 6.93393 25.0442C6.908 24.9831 6.90743 24.9141 6.93235 24.8525C6.95726 24.791 7.00562 24.7418 7.06678 24.7159C7.12794 24.6899 7.19687 24.6894 7.25845 24.7143C7.31269 24.7354 8.56695 25.217 9.23507 23.976C9.25062 23.947 9.27172 23.9213 9.29719 23.9005C9.32266 23.8796 9.35198 23.864 9.38349 23.8545C9.41501 23.845 9.44809 23.8417 9.48085 23.845C9.5136 23.8483 9.54541 23.8579 9.57442 23.8735C9.60344 23.889 9.62912 23.9102 9.64997 23.9356C9.67083 23.9611 9.68645 23.9904 9.69597 24.0219C9.70549 24.0534 9.70873 24.0865 9.70546 24.1193C9.7022 24.152 9.69249 24.1838 9.67694 24.2128C9.21124 25.0821 8.48491 25.3282 7.875 25.3282Z" fill="#221F20"/>
<defs>
<radialGradient id="paint0_radial_6914_9408" cx="0" cy="0" r="1" gradientUnits="userSpaceOnUse" gradientTransform="translate(16.001 15.3124) scale(19.938)">
<stop offset="0.47" stop-color="#F21F7F"/>
<stop offset="0.6" stop-color="#EB3F9F"/>
<stop offset="0.73" stop-color="#E558B9"/>
<stop offset="0.85" stop-color="#E168C9"/>
<stop offset="0.94" stop-color="#E06DCE"/>
</radialGradient>
</defs>
</svg>
